# File created by Blade
# Date/Time:  Tue Apr 07 20:57:09 2015
# Frame Rate: 120.000 fps
#------------------------------------------------------
:FULLY-SPECIFIED
:DEGREES
749
root 29.055994 33.648803 11.926558 355.235832 -68.060011 -668.382467
Spine -9.590630 -26.786058 9.537316
Head 26.316220 -3.273156 -7.568834
LeftShoulder -3.175721 22.024437 37.947580
LeftArm 101.192078 -42.841195 -75.047207
LeftForeArm -10.987901 -0.000000 17.219355
LeftHand 13.966890 -0.000000 6.176377
LeftHandThumb1 -26.253704 0.000000 33.147579
RightShoulder -2.884391 18.794168 -41.676514
RightArm 33.782473 15.216077 38.271937
RightForeArm -13.623136 -0.000000 23.420577
RightHand 17.354957 -0.000000 -17.815039
RightHandThumb1 -24.326973 -0.000000 -32.862282
LeftUpLeg -2.264331 5.872842 -4.008511
LeftLeg 1.377246 -0.000000 -0.000000
LeftFoot 23.486277 16.843900 -19.673630
LeftToeBase -1.639611 -0.000000 0.000000
RightUpLeg -53.572027 -20.445282 1.958739
RightLeg 3.651761 -0.000000 -0.000000
RightFoot 1.508528 -16.922019 -0.310669
RightToeBase -2.941006 -0.000000 0.000000
750
root 29.273492 33.619277 11.959848 355.826347 -67.613387 -669.779322
Spine -10.017908 -27.200345 9.576730
Head 26.356952 -3.328446 -7.728748
LeftShoulder -3.561870 22.280308 37.734637
LeftArm 102.553643 -43.411371 -76.060819
LeftForeArm -11.112002 0.000000 17.137584
LeftHand 14.128913 0.000000 6.556806
LeftHandThumb1 -26.253704 0.000000 33.147579
RightShoulder -3.412513 18.078068 -41.692144
RightArm 33.955874 16.061277 36.817118
RightForeArm -13.327923 -0.000000 22.615827
RightHand 17.648642 -0.000000 -16.883068
RightHandThumb1 -24.326973 -0.000000 -32.862282
LeftUpLeg -2.830567 6.273081 -4.318843
LeftLeg 1.005008 -0.000000 -0.000000
LeftFoot 21.835792 15.840311 -21.348950
LeftToeBase -4.352713 -0.000000 0.000000
RightUpLeg -53.400022 -21.083909 2.224373
RightLeg 4.066015 -0.000000 -0.000000
RightFoot 1.356053 -16.746061 -0.207862
RightToeBase -2.730372 -0.000000 0.000000
751
root 29.489954 33.583356 11.991331 356.540514 -67.301406 -671.324990
Spine -10.383972 -27.280444 9.615115
Head 26.572807 -3.582934 -7.819383
LeftShoulder -3.752217 22.596053 37.558369
LeftArm 104.172489 -43.969014 -77.157750
LeftForeArm -11.376682 0.000000 17.005026
LeftHand 14.336422 -0.000000 7.284397
LeftHandThumb1 -26.253704 0.000000 33.147579
RightShoulder -3.947955 17.773210 -41.883641
RightArm 33.523149 16.564613 35.492539
RightForeArm -13.562199 -0.000000 22.043664
RightHand 17.495208 -0.000000 -16.234832
RightHandThumb1 -24.326973 -0.000000 -32.862282
LeftUpLeg -3.374860 6.580459 -4.551291
LeftLeg 0.686201 -0.000000 -0.000000
LeftFoot 20.063952 15.101433 -23.387821
LeftToeBase -5.689344 -0.000000 0.000000
RightUpLeg -53.190889 -21.523549 2.500585
RightLeg 4.484652 -0.000000 -0.000000
RightFoot 1.185912 -16.685815 -0.094238
RightToeBase -2.430371 -0.000000 0.000000
752
root 29.708326 33.539187 12.022488 357.277424 -67.195298 -672.846187
Spine -10.740108 -27.167485 9.687224
Head 26.810069 -3.766806 -7.867672
LeftShoulder -4.000953 23.053510 37.332926
LeftArm 105.984173 -44.467034 -78.402616
LeftForeArm -11.309336 0.000000 16.915006
LeftHand 14.486453 -0.000000 7.985927
LeftHandThumb1 -26.253704 0.000000 33.147579
RightShoulder -4.452161 17.620459 -42.166531
RightArm 32.941254 16.909372 34.287917
RightForeArm -14.599313 -0.000000 21.546518
RightHand 17.018056 -0.000000 -16.693429
RightHandThumb1 -24.326973 -0.000000 -32.862282
LeftUpLeg -3.919768 6.933140 -4.774152
LeftLeg 0.371659 -0.000000 -0.000000
LeftFoot 18.333055 14.270366 -25.372030
LeftToeBase -6.680391 -0.000000 0.000000
RightUpLeg -52.967019 -21.595126 2.619880
RightLeg 4.889867 -0.000000 -0.000000
RightFoot 1.095878 -16.877016 0.001408
RightToeBase -2.125186 -0.000000 0.000000
753
root 29.925498 33.490005 12.054921 358.065522 -67.135446 -674.460032
Spine -11.006956 -27.053296 9.792372
Head 27.057800 -3.959465 -7.859987
LeftShoulder -4.331479 23.660739 37.128918
LeftArm 107.873836 -44.881032 -79.800220
LeftForeArm -11.372255 0.000000 16.992633
LeftHand 14.576896 -0.000000 8.696393
LeftHandThumb1 -26.253704 0.000000 33.147579
RightShoulder -4.893428 17.511618 -42.405810
RightArm 32.404628 17.296779 33.067455
RightForeArm -15.105802 -0.000000 21.068200
RightHand 16.713714 -0.000000 -16.631321
RightHandThumb1 -24.326973 -0.000000 -32.862282
LeftUpLeg -4.419737 7.138015 -4.952211
LeftLeg 0.141070 -0.000000 -0.000000
LeftFoot 16.978041 13.291529 -26.657199
LeftToeBase -8.520009 -0.000000 0.000000
RightUpLeg -52.636212 -21.499544 2.620883
RightLeg 5.270552 -0.000000 -0.000000
RightFoot 1.021070 -17.261264 0.069419
RightToeBase -1.792075 -0.000000 0.000000
754
root 30.148461 33.436136 12.088442 358.783093 -67.202191 -675.973581
Spine -11.243364 -26.810033 9.862653
Head 27.303186 -4.102294 -7.870561
LeftShoulder -4.677526 23.902739 36.951397
LeftArm 109.362483 -45.106309 -81.011348
LeftForeArm -11.274965 -0.000000 17.100585
LeftHand 14.691852 -0.000000 9.338038
LeftHandThumb1 -26.253704 0.000000 33.147579
RightShoulder -5.267513 17.401975 -42.639913
RightArm 31.834947 17.867286 31.975680
RightForeArm -15.404899 -0.000000 20.708777
RightHand 16.444200 0.000000 -16.631976
RightHandThumb1 -24.326973 -0.000000 -32.862282
LeftUpLeg -4.907170 7.171454 -5.098746
LeftLeg 0.011980 -0.000000 -0.000000
LeftFoot 14.863077 12.422563 -29.429506
LeftToeBase -8.906604 -0.000000 0.000000
RightUpLeg -52.314629 -21.154375 2.454236
RightLeg 5.692590 -0.000000 -0.000000
RightFoot 0.965866 -17.798478 0.235321
RightToeBase -1.447110 -0.000000 0.000000
755
root 30.369183 33.376257 12.124456 359.432211 -67.346536 -677.441702
Spine -11.379496 -26.379518 9.837190
Head 27.596183 -4.384929 -7.743973
LeftShoulder -4.919351 23.905048 36.913577
LeftArm 110.290708 -45.348376 -81.872802
LeftForeArm -11.231741 -0.000000 17.604537
LeftHand 14.240561 -0.000000 9.851267
LeftHandThumb1 -26.253704 0.000000 33.147579
RightShoulder -5.714656 17.097673 -42.811716
RightArm 31.342784 18.536891 30.861214
RightForeArm -15.330931 0.000000 20.367534
RightHand 16.622117 0.000000 -16.728246
RightHandThumb1 -24.326973 -0.000000 -32.862282
LeftUpLeg -5.325703 7.101303 -5.250666
LeftLeg -0.059537 -0.000000 0.000000
LeftFoot 13.602857 11.298519 -30.432845
LeftToeBase -10.494612 -0.000000 0.000000
RightUpLeg -51.925761 -20.638542 2.158288
RightLeg 6.107347 -0.000000 -0.000000
RightFoot 0.895659 -18.463860 0.426331
RightToeBase -0.969328 -0.000000 0.000000
756
root 30.589453 33.314439 12.158131 359.999472 -67.561712 -678.928120
Spine -11.388306 -26.118316 9.786447
Head 27.938379 -4.367125 -7.488091
LeftShoulder -5.397601 25.793965 36.130334
LeftArm 113.894693 -46.238920 -83.653429
LeftForeArm -11.592623 -0.000000 17.453706
LeftHand 14.323064 -0.000000 9.966833
LeftHandThumb1 -26.253704 0.000000 33.147579
RightShoulder -5.931749 17.144045 -42.937774
RightArm 30.745058 18.898730 29.743320
RightForeArm -15.479224 -0.000000 20.014414
RightHand 16.287072 -0.000000 -17.402218
RightHandThumb1 -24.326973 -0.000000 -32.862282
LeftUpLeg -5.596738 6.917692 -5.325878
LeftLeg -0.102267 -0.000000 0.000000
LeftFoot 12.670459 10.079862 -31.549332
LeftToeBase -12.467857 -0.000000 0.000000
RightUpLeg -51.484386 -20.083543 1.871629
RightLeg 6.594467 -0.000000 -0.000000
RightFoot 0.833630 -19.007334 0.647306
RightToeBase -0.603730 -0.000000 0.000000
